<?xml version="1.0" standalone="no"?>
<!DOCTYPE svg PUBLIC "-//W3C//DTD SVG 20010904//EN"
 "http://www.w3.org/TR/2001/REC-SVG-20010904/DTD/svg10.dtd">
<svg version="1.0" xmlns="http://www.w3.org/2000/svg"
 width="512.000000pt" height="512.000000pt" viewBox="0 0 512.000000 512.000000"
 preserveAspectRatio="xMidYMid meet">
<metadata>
Created by potrace 1.14, written by Peter Selinger 2001-2017
</metadata>
<g transform="translate(0.000000,512.000000) scale(0.100000,-0.100000)"
fill="#000000" stroke="none">
<path d="M556 5074 c-14 -14 -16 -114 -16 -950 0 -894 1 -935 18 -952 18 -18
44 -19 460 -18 l442 1 0 -447 0 -448 23 -13 c18 -12 108 -14 495 -13 449 1
474 2 487 20 11 15 14 181 14 952 0 822 -2 935 -15 949 -10 10 -36 15 -77 16
-34 0 -233 1 -442 2 l-380 2 -5 448 c-4 383 -7 449 -20 457 -9 6 -209 10 -492
10 -420 0 -478 -2 -492 -16z"/>
<path d="M3586 3105 c-21 -10 -21 -18 -26 -460 l-5 -450 -442 0 c-348 0 -445
-3 -455 -13 -18 -18 -19 -975 -1 -993 9 -9 123 -12 458 -13 l445 0 0 -442 c0
-389 2 -444 16 -458 19 -20 -39 -18 484 -17 538 0 485 -2 504 17 14 14 16 155
16 1408 0 1172 -2 1395 -14 1411 -13 18 -34 19 -487 20 -305 0 -480 -4 -493
-10z"/>
<path d="M562 1934 l-22 -15 0 -928 c0 -886 1 -929 18 -944 17 -16 130 -17
1414 -17 1316 0 1396 1 1410 18 14 15 16 77 15 491 0 444 -1 475 -18 492 -17
17 -62 18 -919 16 l-900 -2 0 436 c0 410 -1 437 -18 452 -17 15 -65 17 -488
17 -409 0 -472 -2 -492 -16z"/>
</g>
</svg>
